<?xml version="1.0" standalone="no"?>
<!DOCTYPE svg PUBLIC "-//W3C//DTD SVG 20010904//EN"
 "http://www.w3.org/TR/2001/REC-SVG-20010904/DTD/svg10.dtd">
<svg version="1.0" xmlns="http://www.w3.org/2000/svg"
 width="2115.000000pt" height="869.000000pt" viewBox="0 0 2115.000000 869.000000"
 preserveAspectRatio="xMidYMid meet">

<g transform="translate(0.000000,869.000000) scale(0.100000,-0.100000)"
fill="#000000" stroke="none">
<path d="M10225 8684 c-303 -30 -439 -63 -620 -148 -264 -125 -479 -336 -601
-594 -40 -84 -77 -219 -95 -342 -15 -104 -15 170 -11 -4057 l2 -3493 560 0
560 0 2 1373 3 1372 560 0 560 0 3 -1373 2 -1372 553 2 552 3 0 3735 c0 3467
-1 3742 -17 3835 -48 284 -155 502 -333 681 -207 208 -467 313 -890 359 -132
15 -700 28 -790 19z m545 -1297 c139 -49 272 -163 323 -277 55 -122 51 -21 54
-1667 l3 -1523 -565 0 -565 0 2 1538 3 1537 23 65 c45 123 149 237 275 302
125 63 308 73 447 25z"/>
<path d="M18995 6589 c-371 -36 -636 -146 -857 -357 -248 -237 -366 -508 -398
-916 -6 -82 -10 -1058 -10 -2698 l0 -2568 563 2 562 3 0 140 c-1 77 -2 1155
-3 2395 -2 2481 -6 2329 59 2450 42 79 149 180 239 225 100 50 185 68 295 62
242 -14 443 -167 514 -392 14 -45 16 -296 18 -2468 l3 -2417 549 0 548 0 9
2432 c11 3062 12 2946 -5 3038 -48 270 -165 495 -355 686 -249 250 -515 349
-1026 384 -172 12 -578 11 -705 -1z"/>
<path d="M15676 6458 c-3 -51 -10 -1121 -16 -2378 -7 -1326 -15 -2311 -21
-2348 -5 -34 -18 -86 -29 -116 -99 -264 -437 -413 -711 -313 -204 74 -333 217
-370 411 -6 31 -9 980 -9 2438 l0 2388 -564 0 -563 0 -6 -397 c-4 -219 -8
-1406 -9 -2638 -2 -2458 -4 -2335 57 -2564 108 -403 453 -742 878 -865 206
-60 443 -81 812 -73 488 11 742 55 970 170 111 55 186 108 277 195 186 177
316 412 369 662 27 127 25 -159 22 3078 l-3 2442 -539 0 -539 0 -6 -92z"/>
<path d="M10 3285 l0 -3235 1168 0 c703 0 1224 4 1311 11 416 29 620 124 775
358 98 147 168 351 209 605 21 137 22 162 22 881 0 646 -2 755 -17 860 -32
222 -84 365 -191 533 l-47 72 65 85 c105 139 149 243 176 420 20 126 20 1391
1 1545 -43 347 -173 611 -394 801 -176 152 -359 233 -623 276 -88 15 -241 17
-1277 20 l-1178 4 0 -3236z m1905 2031 c105 -21 178 -52 219 -92 85 -82 95
-147 96 -585 0 -304 -2 -343 -20 -414 -23 -90 -53 -145 -107 -197 -72 -70 -83
-72 -505 -76 l-378 -3 0 697 0 697 313 -6 c213 -4 334 -11 382 -21z m20 -2630
c102 -23 190 -70 226 -119 58 -81 62 -107 67 -500 2 -248 0 -379 -8 -428 -15
-88 -68 -196 -120 -242 -72 -66 -100 -70 -512 -75 l-368 -4 0 697 0 697 323
-5 c245 -4 339 -9 392 -21z"/>
<path d="M4450 3285 l0 -3235 610 0 609 0 -6 1320 -6 1320 521 0 522 0 0
-1320 0 -1320 620 0 620 0 0 1263 c0 803 -4 1304 -11 1377 -20 228 -64 379
-155 535 -26 44 -56 96 -67 115 l-20 36 57 69 c79 97 142 227 169 350 22 98
22 113 22 855 0 821 0 829 -59 1030 -55 190 -159 363 -302 500 -186 179 -372
268 -656 316 -93 16 -215 18 -1285 21 l-1183 4 0 -3236z m1783 2045 c248 -21
359 -75 409 -199 22 -54 23 -69 26 -449 3 -429 0 -465 -50 -560 -53 -102 -105
-141 -213 -161 -35 -7 -197 -11 -402 -11 l-343 0 0 688 c0 379 3 692 7 695 10
11 433 8 566 -3z"/>
</g>
</svg>
