<?xml version="1.0" standalone="no"?>
<!DOCTYPE svg PUBLIC "-//W3C//DTD SVG 20010904//EN"
 "http://www.w3.org/TR/2001/REC-SVG-20010904/DTD/svg10.dtd">
<svg version="1.0" xmlns="http://www.w3.org/2000/svg"
 width="900.000000pt" height="957.000000pt" viewBox="0 0 900.000000 957.000000"
 preserveAspectRatio="xMidYMid meet">

<g transform="translate(0.000000,957.000000) scale(0.100000,-0.100000)"
fill="#000000" stroke="none">
<path d="M3988 9551 c-110 -36 -167 -88 -194 -178 -8 -26 -20 -130 -26 -230
l-11 -183 -26 0 c-51 0 -368 -30 -481 -46 -595 -81 -1169 -289 -1513 -548
-165 -124 -276 -257 -356 -424 l-35 -72 -295 0 c-414 0 -780 -14 -861 -31 -62
-13 -129 -68 -163 -134 -29 -57 -29 -175 2 -275 31 -99 203 -557 336 -895 189
-478 541 -1386 588 -1515 56 -154 76 -226 126 -455 l40 -180 6 -1335 c7 -1519
21 -2559 34 -2672 6 -42 15 -95 21 -117 12 -44 71 -108 163 -177 69 -51 108
-60 297 -68 205 -9 4595 -15 4835 -7 238 8 252 12 362 95 55 42 121 124 161
201 5 11 13 139 16 295 7 300 17 614 20 617 1 1 215 5 476 8 882 10 892 11
1032 81 198 100 356 283 424 494 26 82 31 629 26 3100 l-4 2105 -37 90 c-82
200 -228 358 -418 454 -131 66 -157 68 -1018 77 l-559 6 -33 36 c-44 50 -88
125 -118 206 -61 162 -127 259 -266 390 -286 269 -764 481 -1352 600 -193 39
-485 77 -643 83 l-142 6 -4 176 c-3 172 -4 177 -34 241 -17 36 -46 83 -64 104
-73 83 -200 114 -312 77z m347 -1231 c330 -16 512 -39 795 -101 292 -64 461
-123 719 -251 123 -61 141 -73 125 -82 -14 -8 -548 -12 -1874 -14 -1020 -2
-1880 -2 -1910 0 l-55 3 96 58 c263 158 681 283 1184 352 312 44 552 53 920
35z m3961 -1375 c15 -11 35 -36 45 -55 18 -33 19 -119 19 -2482 l0 -2446 -52
-46 -53 -46 -617 0 -618 0 0 2551 0 2550 624 -3 c610 -3 625 -3 652 -23z
m-2970 -234 c61 -27 105 -69 155 -145 l39 -59 -1 -2631 c0 -1447 -4 -2680 -8
-2741 -5 -86 -12 -120 -31 -158 -75 -149 -277 -216 -423 -140 -41 21 -104 80
-138 129 l-29 43 0 2756 0 2755 26 43 c97 157 258 215 410 148z m-1051 -396
c31 -12 67 -36 97 -67 106 -109 131 -237 70 -361 -37 -75 -108 -145 -168 -167
-51 -18 -891 -27 -981 -11 -70 13 -155 68 -194 126 -108 158 -53 377 115 462
73 37 146 42 606 39 364 -3 410 -5 455 -21z m15 -2413 c49 -16 124 -95 157
-167 65 -140 5 -320 -133 -401 -61 -36 -168 -43 -654 -40 -353 1 -388 3 -423
20 -65 32 -134 103 -168 172 -29 58 -31 70 -27 134 10 132 92 252 198 285 37
12 129 14 530 11 329 -2 496 -6 520 -14z"/>
</g>
</svg>
