<?xml version="1.0" standalone="no"?>
<!DOCTYPE svg PUBLIC "-//W3C//DTD SVG 20010904//EN"
 "http://www.w3.org/TR/2001/REC-SVG-20010904/DTD/svg10.dtd">
<svg version="1.0" xmlns="http://www.w3.org/2000/svg"
 width="460.000000pt" height="512.000000pt" viewBox="0 0 460.000000 512.000000"
 preserveAspectRatio="xMidYMid meet">

<g transform="translate(0.000000,512.000000) scale(0.100000,-0.100000)"
fill="#000000" stroke="none">
<path d="M3035 5094 c-1022 -37 -1998 -332 -2625 -793 -109 -79 -272 -245
-304 -309 l-27 -53 60 -55 c152 -140 256 -345 308 -601 16 -81 18 -195 20
-1391 l4 -1302 1579 0 1580 0 0 784 0 784 71 118 c80 134 226 429 287 579 92
227 163 477 203 706 31 180 38 505 14 672 -40 286 -130 484 -283 629 -119 112
-255 179 -432 212 -85 17 -298 26 -455 20z m320 -568 c113 -30 198 -97 241
-189 23 -50 24 -59 24 -297 0 -361 -32 -582 -120 -821 -106 -288 -289 -518
-402 -507 -60 6 -59 -8 -56 882 3 788 3 802 24 840 47 90 161 127 289 92z
m-1251 -1386 c157 -55 272 -177 320 -339 24 -80 24 -1366 1 -1456 -82 -315
-434 -463 -715 -302 -98 57 -201 193 -226 300 l-6 27 233 0 c243 0 294 6 324
40 29 32 25 105 -9 138 l-26 27 -265 3 -265 3 0 189 0 190 238 0 c134 0 253 5
275 11 72 20 96 114 43 168 l-26 26 -265 3 -265 3 0 194 0 195 263 0 263 0 29
30 c40 41 40 100 1 139 l-26 26 -261 3 -261 3 6 32 c3 18 21 64 40 102 66 138
214 245 371 268 50 8 154 -4 209 -23z"/>
<path d="M4033 1755 c-125 -63 -235 -120 -243 -127 -38 -32 -63 -90 -63 -147
0 -122 79 -201 202 -201 43 0 79 15 278 114 125 63 238 123 250 135 72 68 80
184 19 264 -41 54 -86 76 -158 77 -53 0 -72 -8 -285 -115z"/>
<path d="M193 376 c-36 -17 -60 -38 -80 -67 -27 -40 -28 -49 -31 -176 l-4
-133 1977 0 1977 0 -4 128 c-5 141 -14 168 -72 220 -20 17 -52 36 -73 41 -26
8 -613 11 -1838 11 l-1800 0 -52 -24z"/>
</g>
</svg>
