<?xml version="1.0" standalone="no"?>
<!DOCTYPE svg PUBLIC "-//W3C//DTD SVG 20010904//EN"
 "http://www.w3.org/TR/2001/REC-SVG-20010904/DTD/svg10.dtd">
<svg version="1.0" xmlns="http://www.w3.org/2000/svg"
 width="585.000000pt" height="64.000000pt" viewBox="0 0 585.000000 64.000000"
 preserveAspectRatio="xMidYMid meet">

<g transform="translate(0.000000,64.000000) scale(0.100000,-0.100000)"
fill="#000000" stroke="none">
<path d="M88 594 c-43 -23 -58 -62 -58 -156 0 -89 18 -135 60 -158 11 -6 120
-15 248 -20 125 -5 228 -9 229 -10 11 -2 33 -36 33 -50 0 -46 -19 -50 -237
-50 -196 0 -205 1 -210 20 -5 17 -14 20 -64 20 l-59 0 0 -35 c0 -43 22 -88 52
-109 32 -23 534 -24 577 -1 46 23 64 74 59 172 -3 83 -4 85 -40 119 -30 27
-46 34 -80 35 -238 4 -417 16 -432 28 -23 19 -21 68 3 81 12 6 100 10 215 10
l196 0 16 -25 c15 -23 23 -26 68 -23 l51 3 -1 49 c0 43 -5 53 -37 82 l-37 34
-262 0 c-213 -1 -268 -4 -290 -16z"/>
<path d="M1710 320 l0 -290 60 0 60 0 0 212 c0 123 4 208 9 203 5 -6 46 -101
92 -212 l84 -203 60 0 60 0 85 206 c47 113 88 208 93 211 4 2 7 -91 7 -206 l0
-211 60 0 60 0 0 290 0 291 -97 -3 -98 -3 -80 -193 c-44 -107 -85 -193 -90
-193 -6 0 -46 87 -90 193 l-80 193 -98 3 -97 3 0 -291z"/>
<path d="M3490 320 l0 -290 285 0 285 0 0 60 0 60 -225 0 -225 0 0 55 0 55
225 0 225 0 0 60 0 60 -225 0 -225 0 0 55 0 55 225 0 225 0 0 60 0 60 -285 0
-285 0 0 -290z"/>
<path d="M5185 588 c-48 -38 -55 -70 -55 -268 0 -198 7 -230 55 -268 27 -21
36 -22 297 -22 l270 0 34 34 34 34 0 141 0 141 -170 0 -170 0 0 -60 0 -60 110
0 110 0 0 -49 c0 -35 -4 -51 -16 -55 -9 -3 -105 -6 -214 -6 -187 0 -200 1
-210 19 -5 11 -10 80 -10 155 0 109 3 138 16 150 13 14 47 16 220 16 l204 0
10 -26 c9 -23 14 -25 62 -22 l53 3 3 48 c3 43 0 51 -31 82 l-35 35 -270 0
c-261 0 -270 -1 -297 -22z"/>
</g>
</svg>
