<?xml version="1.0" standalone="no"?>
<!DOCTYPE svg PUBLIC "-//W3C//DTD SVG 20010904//EN"
 "http://www.w3.org/TR/2001/REC-SVG-20010904/DTD/svg10.dtd">
<svg version="1.0" xmlns="http://www.w3.org/2000/svg"
 width="600.000000pt" height="600.000000pt" viewBox="0 0 600.000000 600.000000"
 preserveAspectRatio="xMidYMid meet">

<g transform="translate(0.000000,600.000000) scale(0.100000,-0.100000)"
fill="#000000" stroke="none">
<path d="M2325 5989 c-845 -54 -1351 -243 -1740 -651 -333 -348 -494 -782
-566 -1518 -16 -173 -24 -1214 -10 -1460 33 -573 114 -945 278 -1274 65 -131
105 -195 191 -305 255 -328 613 -548 1077 -662 359 -88 732 -119 1445 -119
825 0 1245 45 1639 176 296 99 512 227 720 428 370 360 547 806 617 1566 21
234 31 1092 15 1399 -29 575 -101 948 -243 1264 -272 605 -775 963 -1538 1096
-149 26 -353 48 -560 61 -193 12 -1135 11 -1325 -1z m855 -1802 c215 -43 330
-96 436 -202 104 -104 161 -228 199 -435 23 -128 36 -625 33 -1206 -3 -487 -4
-513 -22 -533 -19 -20 -27 -21 -314 -21 l-294 0 -34 34 -34 34 0 654 c0 652
-5 766 -36 878 -32 116 -88 162 -235 195 -101 23 -989 34 -1029 13 l-25 -14
-5 -868 -5 -868 -33 -29 -32 -29 -280 0 -280 0 -32 29 -33 29 -3 1124 c-1 618
0 1137 3 1154 3 18 17 44 32 58 l27 27 955 -4 c846 -3 966 -6 1041 -20z m1621
13 c51 -28 49 19 49 -1217 0 -1023 -2 -1151 -16 -1171 -15 -22 -17 -22 -312
-22 -259 0 -301 2 -321 16 -53 37 -51 -2 -51 1187 0 608 3 1118 6 1136 4 17
18 42 32 56 l25 25 284 0 c176 0 292 -4 304 -10z m-2011 -885 c16 -8 34 -24
40 -34 6 -13 10 -261 10 -726 l0 -707 -29 -29 -29 -29 -297 0 -297 0 -29 29
-29 29 0 707 c0 463 4 713 10 725 24 46 49 49 343 50 229 0 283 -3 307 -15z"/>
</g>
</svg>
